# xmcd
# Track frame offsets:
# 150
# 15350
# 32197
# 45374
# 59581
# 68675
# 86137
# 99442
# 112746
# 131458
# 142926
# 160295
# 174646
# 188830
# 200870
# 217734
#
# Disc length: 3257 seconds
# Revision: 0
# Processed by: cddbd v1.5.2PL0 Copyright (c) Steve Scherf et al.
# Submitted via: VisiTrax 2.10.3.257 - For more info visit www.synapsa.com
#
DISCID=d40cb710
DTITLE=Williams, Hank - Hank Williams: Unreleased Recordings
DYEAR=2008
DGENRE=
TTITLE0=Blue Eyes Crying In The Rain
TTITLE1=On Top Of Old Smoky
TTITLE2=Dust On The Bible
TTITLE3=Have I Told You Lately That I Love You
TTITLE4=I'll Have A New Life
TTITLE5=Softly And Tenderly
TTITLE6=Theres Nothing As Sweet As My Baby
TTITLE7=Pins And Needles In My Heart
TTITLE8=Searching For A Soldiers Grave
TTITLE9=Tennessee Border
TTITLE10=Thy Burdens Are Greater Than Mine
TTITLE11=Hey Good Lookin
TTITLE12=Prodigal Son, The
TTITLE13=WhenThe Saints Go Marching In
TTITLE14=I'll Sail My Ship Alone
TTITLE15=Mothers Best Lil Ol Boys
EXTD=
EXTT0=
EXTT1=
EXTT2=
EXTT3=
EXTT4=
EXTT5=
EXTT6=
EXTT7=
EXTT8=
EXTT9=
EXTT10=
EXTT11=
EXTT12=
EXTT13=
EXTT14=
EXTT15=
PLAYORDER=
